<?xml version="1.0" encoding="UTF-8"?>
<svg xmlns="http://www.w3.org/2000/svg" xmlns:xlink="http://www.w3.org/1999/xlink" width="16px" height="16px" viewBox="0 0 16 16" version="1.1">
<g id="surface1">
<path style=" stroke:none;fill-rule:nonzero;fill:rgb(0%,0%,0%);fill-opacity:1;" d="M 12.667969 0.667969 L 3.332031 0.667969 C 1.492188 0.667969 0.00390625 2.160156 0 4 L 0 12 C 0.00390625 13.839844 1.492188 15.332031 3.332031 15.332031 L 12.667969 15.332031 C 14.507812 15.332031 15.996094 13.839844 16 12 L 16 4 C 15.996094 2.160156 14.507812 0.667969 12.667969 0.667969 Z M 3.332031 2 L 12.667969 2 C 13.484375 2 14.21875 2.5 14.519531 3.257812 L 9.414062 8.363281 C 8.632812 9.144531 7.367188 9.144531 6.585938 8.363281 L 1.480469 3.257812 C 1.78125 2.5 2.515625 2 3.332031 2 Z M 12.667969 14 L 3.332031 14 C 2.230469 14 1.332031 13.105469 1.332031 12 L 1.332031 5 L 5.644531 9.308594 C 6.945312 10.605469 9.054688 10.605469 10.355469 9.308594 L 14.667969 5 L 14.667969 12 C 14.667969 13.105469 13.769531 14 12.667969 14 Z M 12.667969 14 "/>
</g>
</svg>
