<?xml version="1.0" encoding="UTF-8"?>
<svg xmlns="http://www.w3.org/2000/svg" xmlns:xlink="http://www.w3.org/1999/xlink" width="12px" height="12px" viewBox="0 0 12 12" version="1.1">
<g id="surface1">
<path style=" stroke:none;fill-rule:nonzero;fill:rgb(0%,0%,0%);fill-opacity:1;" d="M 8.75 0.957031 C 7.605469 0.976562 6.554688 1.605469 6 2.609375 C 5.445312 1.605469 4.394531 0.976562 3.25 0.957031 C 1.382812 1.039062 -0.0703125 2.613281 0 4.484375 C 0 6.757812 2.394531 9.238281 4.398438 10.921875 C 5.324219 11.699219 6.675781 11.699219 7.601562 10.921875 C 9.605469 9.238281 12 6.757812 12 4.484375 C 12.070312 2.613281 10.617188 1.039062 8.75 0.957031 Z M 6.957031 10.160156 C 6.402344 10.625 5.597656 10.625 5.042969 10.160156 C 2.472656 8.003906 1 5.933594 1 4.484375 C 0.929688 3.167969 1.933594 2.039062 3.25 1.957031 C 4.566406 2.039062 5.570312 3.167969 5.5 4.484375 C 5.5 4.757812 5.722656 4.984375 6 4.984375 C 6.277344 4.984375 6.5 4.757812 6.5 4.484375 C 6.429688 3.167969 7.433594 2.039062 8.75 1.957031 C 10.066406 2.039062 11.070312 3.167969 11 4.484375 C 11 5.933594 9.527344 8.003906 6.957031 10.15625 Z M 6.957031 10.160156 "/>
</g>
</svg>
