<?xml version="1.0" encoding="UTF-8"?>
<svg xmlns="http://www.w3.org/2000/svg" xmlns:xlink="http://www.w3.org/1999/xlink" width="16px" height="16px" viewBox="0 0 16 16" version="1.1">
<g id="surface1">
<path style=" stroke:none;fill-rule:nonzero;fill:rgb(0%,0%,0%);fill-opacity:1;" d="M 8 1.441406 C 10.136719 1.441406 10.390625 1.449219 11.234375 1.488281 C 12.105469 1.527344 13.003906 1.726562 13.636719 2.363281 C 14.28125 3.003906 14.472656 3.894531 14.511719 4.765625 C 14.550781 5.609375 14.558594 5.863281 14.558594 8 C 14.558594 10.136719 14.550781 10.390625 14.511719 11.234375 C 14.472656 12.101562 14.269531 13.007812 13.636719 13.636719 C 12.996094 14.28125 12.109375 14.472656 11.234375 14.511719 C 10.390625 14.550781 10.136719 14.558594 8 14.558594 C 5.863281 14.558594 5.609375 14.550781 4.765625 14.511719 C 3.90625 14.472656 2.988281 14.265625 2.363281 13.636719 C 1.722656 13 1.527344 12.101562 1.488281 11.234375 C 1.449219 10.390625 1.441406 10.136719 1.441406 8 C 1.441406 5.863281 1.449219 5.609375 1.488281 4.765625 C 1.527344 3.902344 1.734375 2.992188 2.363281 2.363281 C 3.003906 1.722656 3.894531 1.527344 4.765625 1.488281 C 5.609375 1.449219 5.863281 1.441406 8 1.441406 M 8 0 C 5.828125 0 5.554688 0.0078125 4.703125 0.046875 C 3.464844 0.105469 2.238281 0.449219 1.34375 1.34375 C 0.445312 2.238281 0.105469 3.464844 0.046875 4.703125 C 0.0078125 5.554688 0 5.828125 0 8 C 0 10.171875 0.0078125 10.445312 0.046875 11.296875 C 0.105469 12.535156 0.449219 13.765625 1.34375 14.65625 C 2.238281 15.554688 3.464844 15.894531 4.703125 15.953125 C 5.554688 15.992188 5.828125 16 8 16 C 10.171875 16 10.445312 15.992188 11.296875 15.953125 C 12.535156 15.894531 13.765625 15.550781 14.65625 14.65625 C 15.554688 13.757812 15.894531 12.535156 15.953125 11.296875 C 15.992188 10.445312 16 10.171875 16 8 C 16 5.828125 15.992188 5.554688 15.953125 4.703125 C 15.894531 3.464844 15.550781 2.234375 14.65625 1.34375 C 13.761719 0.449219 12.53125 0.105469 11.296875 0.046875 C 10.445312 0.0078125 10.171875 0 8 0 Z M 8 0 "/>
<path style=" stroke:none;fill-rule:nonzero;fill:rgb(0%,0%,0%);fill-opacity:1;" d="M 8 3.890625 C 5.730469 3.890625 3.890625 5.730469 3.890625 8 C 3.890625 10.269531 5.730469 12.109375 8 12.109375 C 10.269531 12.109375 12.109375 10.269531 12.109375 8 C 12.109375 5.730469 10.269531 3.890625 8 3.890625 Z M 8 10.667969 C 6.527344 10.667969 5.332031 9.472656 5.332031 8 C 5.332031 6.527344 6.527344 5.332031 8 5.332031 C 9.472656 5.332031 10.667969 6.527344 10.667969 8 C 10.667969 9.472656 9.472656 10.667969 8 10.667969 Z M 8 10.667969 "/>
<path style=" stroke:none;fill-rule:nonzero;fill:rgb(0%,0%,0%);fill-opacity:1;" d="M 13.230469 3.730469 C 13.230469 4.257812 12.800781 4.6875 12.269531 4.6875 C 11.742188 4.6875 11.3125 4.257812 11.3125 3.730469 C 11.3125 3.199219 11.742188 2.769531 12.269531 2.769531 C 12.800781 2.769531 13.230469 3.199219 13.230469 3.730469 Z M 13.230469 3.730469 "/>
</g>
</svg>
