<?xml version="1.0" encoding="UTF-8"?>
<svg xmlns="http://www.w3.org/2000/svg" xmlns:xlink="http://www.w3.org/1999/xlink" width="16px" height="16px" viewBox="0 0 16 16" version="1.1">
<g id="surface1">
<path style=" stroke:none;fill-rule:nonzero;fill:rgb(0%,0%,0%);fill-opacity:1;" d="M 8.03125 12.816406 C 5.375 12.816406 4.160156 11.460938 4.160156 10.46875 C 4.160156 10.230469 4.257812 10.003906 4.429688 9.839844 C 4.601562 9.679688 4.832031 9.59375 5.070312 9.605469 C 6.207031 9.605469 5.910156 11.3125 8.03125 11.3125 C 9.117188 11.3125 9.753906 10.660156 9.753906 10.046875 C 9.753906 9.675781 9.542969 9.257812 8.828125 9.085938 L 6.457031 8.488281 C 4.550781 8.003906 4.21875 6.945312 4.21875 5.964844 C 4.21875 3.925781 6.085938 3.1875 7.863281 3.1875 C 9.496094 3.1875 11.441406 4.089844 11.441406 5.3125 C 11.441406 5.839844 11 6.121094 10.492188 6.121094 C 9.519531 6.121094 9.683594 4.757812 7.726562 4.757812 C 6.753906 4.757812 6.242188 5.210938 6.242188 5.851562 C 6.242188 6.488281 7 6.703125 7.664062 6.847656 L 9.414062 7.242188 C 11.332031 7.675781 11.84375 8.800781 11.84375 9.878906 C 11.84375 11.535156 10.558594 12.816406 8.03125 12.816406 M 15.371094 9.308594 C 15.449219 8.875 15.484375 8.433594 15.484375 7.992188 C 15.492188 5.773438 14.519531 3.667969 12.824219 2.238281 C 11.128906 0.808594 8.886719 0.203125 6.703125 0.585938 C 6.03125 0.199219 5.269531 -0.00390625 4.496094 0 C 2.90625 0.0117188 1.4375 0.863281 0.644531 2.238281 C -0.152344 3.617188 -0.15625 5.3125 0.628906 6.695312 C 0.191406 9.105469 0.960938 11.578125 2.6875 13.316406 C 4.417969 15.054688 6.886719 15.839844 9.300781 15.414062 C 9.972656 15.796875 10.734375 16 11.507812 16 C 13.097656 15.988281 14.5625 15.136719 15.355469 13.761719 C 16.148438 12.382812 16.15625 10.691406 15.371094 9.308594 "/>
</g>
</svg>
