<?xml version="1.0" encoding="UTF-8"?>
<svg xmlns="http://www.w3.org/2000/svg" xmlns:xlink="http://www.w3.org/1999/xlink" width="16px" height="16px" viewBox="0 0 16 16" version="1.1">
<g id="surface1">
<path style=" stroke:none;fill-rule:evenodd;fill:rgb(0%,0%,0%);fill-opacity:1;" d="M 8 0 C 3.582031 0 0 3.582031 0 8 C 0 12.417969 3.582031 16 8 16 C 12.417969 16 16 12.417969 16 8 C 16 3.582031 12.417969 0 8 0 Z M 11.707031 5.441406 C 11.589844 6.707031 11.066406 9.773438 10.800781 11.191406 C 10.691406 11.792969 10.46875 11.992188 10.253906 12.011719 C 9.789062 12.054688 9.4375 11.703125 8.988281 11.410156 C 8.285156 10.949219 7.886719 10.660156 7.203125 10.210938 C 6.414062 9.691406 6.925781 9.402344 7.375 8.9375 C 7.492188 8.8125 9.539062 6.953125 9.578125 6.785156 C 9.585938 6.761719 9.589844 6.683594 9.542969 6.640625 C 9.496094 6.601562 9.425781 6.613281 9.375 6.625 C 9.304688 6.640625 8.179688 7.386719 6.003906 8.855469 C 5.683594 9.074219 5.394531 9.183594 5.132812 9.175781 C 4.847656 9.171875 4.300781 9.015625 3.890625 8.882812 C 3.390625 8.71875 2.992188 8.632812 3.027344 8.355469 C 3.042969 8.210938 3.242188 8.066406 3.621094 7.914062 C 5.953125 6.898438 7.507812 6.230469 8.285156 5.90625 C 10.507812 4.980469 10.96875 4.820312 11.269531 4.816406 C 11.648438 4.808594 11.738281 5.121094 11.707031 5.441406 Z M 11.707031 5.441406 "/>
</g>
</svg>
